grf.mot
version=1
nRows=125
nColumns=19
inDegrees=yes
endheader
time	ground_force_vx	ground_force_vy	ground_force_vz	ground_force_px	ground_force_py	ground_force_pz	1_ground_force_vx	1_ground_force_vy	1_ground_force_vz	1_ground_force_px	1_ground_force_py	1_ground_force_pz	ground_torque_x	ground_torque_y	ground_torque_z	1_ground_torque_x	1_ground_torque_y	1_ground_torque_z	
1.2403	47.5372	118.388	5.06487	-0.24013	0	0.0408615	-153.651	849.733	54.7383	0.172559	0	-0.122005	0	-1.12279	0	0	7.65769	0
1.24196	43.8994	107.693	5.2746	-0.233406	0	0.039575	-153.725	855.546	55.8461	0.17025	0	-0.12164	0	-1.08462	0	0	7.73955	0
1.24363	40.3323	97.3882	5.45795	-0.226583	0	0.0382834	-153.693	861.118	56.9233	0.167927	0	-0.121292	0	-1.04642	0	0	7.81707	0
1.2453	36.841	87.4785	5.61538	-0.219672	0	0.036988	-153.555	866.443	57.9691	0.165589	0	-0.120962	0	-1.00824	0	0	7.89017	0
1.24696	33.43	77.9676	5.74745	-0.212684	0	0.0356905	-153.314	871.521	58.9829	0.16324	0	-0.12065	0	-0.970132	0	0	7.95878	0
1.24863	30.1037	68.8583	5.8547	-0.205629	0	0.0343923	-152.97	876.349	59.964	0.160881	0	-0.120358	0	-0.932149	0	0	8.02285	0
1.2503	26.8662	60.1527	5.93776	-0.198518	0	0.0330949	-152.525	880.923	60.912	0.158513	0	-0.120087	0	-0.894338	0	0	8.08233	0
1.25196	23.7213	51.8517	5.99725	-0.191363	0	0.0317998	-151.981	885.243	61.8265	0.156138	0	-0.119837	0	-0.856749	0	0	8.13716	0
1.25363	20.6727	43.9558	6.03383	-0.184175	0	0.0305085	-151.34	889.307	62.707	0.153758	0	-0.11961	0	-0.819426	0	0	8.18733	0
1.2553	17.7237	36.4645	6.04822	-0.176966	0	0.0292226	-150.604	893.112	63.5534	0.151373	0	-0.119405	0	-0.782415	0	0	8.2328	0
1.25696	14.8772	29.3763	6.04113	-0.169746	0	0.0279435	-149.774	896.657	64.3654	0.148985	0	-0.119224	0	-0.74576	0	0	8.27356	0
1.25863	0	0	0	0	0	0	-148.853	899.941	65.1428	0.146596	0	-0.119066	0	0	0	0	8.30961	0
1.2603	0	0	0	0	0	0	-147.844	902.964	65.8856	0.144206	0	-0.118932	0	0	0	0	8.34095	0
1.26196	0	0	0	0	0	0	-146.749	905.724	66.5939	0.141817	0	-0.118822	0	0	0	0	8.36758	0
1.26363	0	0	0	0	0	0	-145.571	908.221	67.2675	0.13943	0	-0.118736	0	0	0	0	8.38954	0
1.2653	0	0	0	0	0	0	-144.312	910.455	67.9068	0.137046	0	-0.118674	0	0	0	0	8.40685	0
1.26696	0	0	0	0	0	0	-142.974	912.426	68.5118	0.134666	0	-0.118637	0	0	0	0	8.41955	0
1.26863	0	0	0	0	0	0	-141.562	914.134	69.0828	0.13229	0	-0.118623	0	0	0	0	8.42769	0
1.2703	0	0	0	0	0	0	-140.078	915.579	69.6201	0.12992	0	-0.118634	0	0	0	0	8.43133	0
1.27196	0	0	0	0	0	0	-138.524	916.763	70.1242	0.127557	0	-0.118667	0	0	0	0	8.43052	0
1.27363	0	0	0	0	0	0	-136.905	917.686	70.5953	0.125201	0	-0.118724	0	0	0	0	8.42535	0
1.2753	0	0	0	0	0	0	-135.222	918.35	71.034	0.122854	0	-0.118803	0	0	0	0	8.41588	0
1.27696	0	0	0	0	0	0	-133.48	918.756	71.4408	0.120515	0	-0.118904	0	0	0	0	8.40222	0
1.27863	0	0	0	0	0	0	-131.681	918.907	71.8162	0.118186	0	-0.119026	0	0	0	0	8.38445	0
1.2803	0	0	0	0	0	0	-129.828	918.804	72.1608	0.115867	0	-0.119169	0	0	0	0	8.36268	0
1.28196	0	0	0	0	0	0	-127.925	918.451	72.4752	0.113559	0	-0.119332	0	0	0	0	8.33701	0
1.28363	0	0	0	0	0	0	-125.975	917.848	72.7601	0.111262	0	-0.119513	0	0	0	0	8.30757	0
1.2853	0	0	0	0	0	0	-123.982	917.001	73.0162	0.108977	0	-0.119713	0	0	0	0	8.27447	0
1.28696	0	0	0	0	0	0	-121.947	915.911	73.2442	0.106704	0	-0.11993	0	0	0	0	8.23785	0
1.28863	0	0	0	0	0	0	-119.875	914.582	73.4449	0.104445	0	-0.120164	0	0	0	0	8.19783	0
1.2903	0	0	0	0	0	0	-117.769	913.019	73.6189	0.102198	0	-0.120413	0	0	0	0	8.15455	0
1.29196	0	0	0	0	0	0	-115.632	911.225	73.7672	0.0999654	0	-0.120676	0	0	0	0	8.10816	0
1.29363	0	0	0	0	0	0	-113.467	909.204	73.8905	0.0977466	0	-0.120952	0	0	0	0	8.0588	0
1.2953	0	0	0	0	0	0	-111.278	906.962	73.9895	0.095542	0	-0.12124	0	0	0	0	8.00662	0
1.29696	0	0	0	0	0	0	-109.066	904.503	74.0651	0.093352	0	-0.12154	0	0	0	0	7.95179	0
1.29863	0	0	0	0	0	0	-106.836	901.832	74.1182	0.0911768	0	-0.12185	0	0	0	0	7.89445	0
1.3003	0	0	0	0	0	0	-104.59	898.954	74.1495	0.0890166	0	-0.122168	0	0	0	0	7.83476	0
1.30196	0	0	0	0	0	0	-102.331	895.875	74.1599	0.0868717	0	-0.122494	0	0	0	0	7.77289	0
1.30363	0	0	0	0	0	0	-100.062	892.602	74.1501	0.0847422	0	-0.122827	0	0	0	0	7.709	0
1.3053	0	0	0	0	0	0	-97.7856	889.139	74.1211	0.0826282	0	-0.123165	0	0	0	0	7.64326	0
1.30696	0	0	0	0	0	0	-95.5047	885.493	74.0735	0.0805298	0	-0.123507	0	0	0	0	7.57582	0
1.30863	0	0	0	0	0	0	-93.2217	881.672	74.0082	0.078447	0	-0.123853	0	0	0	0	7.50686	0
1.3103	0	0	0	0	0	0	-90.9392	877.68	73.9259	0.0763799	0	-0.1242	0	0	0	0	7.43654	0
1.31196	0	0	0	0	0	0	-88.6598	873.526	73.8274	0.0743285	0	-0.124549	0	0	0	0	7.36503	0
1.31363	0	0	0	0	0	0	-86.3856	869.216	73.7135	0.0722927	0	-0.124897	0	0	0	0	7.29248	0
1.3153	0	0	0	0	0	0	-84.1191	864.757	73.5848	0.0702725	0	-0.125245	0	0	0	0	7.21907	0
1.31696	0	0	0	0	0	0	-81.8624	860.157	73.442	0.0682678	0	-0.12559	0	0	0	0	7.14495	0
1.31863	0	0	0	0	0	0	-79.6177	855.423	73.2859	0.0662784	0	-0.125932	0	0	0	0	7.07027	0
1.3203	0	0	0	0	0	0	-77.3868	850.563	73.117	0.0643041	0	-0.12627	0	0	0	0	6.9952	0
1.32196	0	0	0	0	0	0	-75.1717	845.585	72.9359	0.0623447	0	-0.126603	0	0	0	0	6.91988	0
1.32363	0	0	0	0	0	0	-72.9744	840.496	72.7434	0.0604001	0	-0.12693	0	0	0	0	6.84446	0
1.3253	0	0	0	0	0	0	-70.7963	835.304	72.5398	0.0584698	0	-0.127251	0	0	0	0	6.76909	0
1.32696	0	0	0	0	0	0	-68.6393	830.018	72.3258	0.0565537	0	-0.127564	0	0	0	0	6.69391	0
1.32863	0	0	0	0	0	0	-66.5047	824.644	72.1018	0.0546513	0	-0.127869	0	0	0	0	6.61904	0
1.3303	0	0	0	0	0	0	-64.3941	819.193	71.8682	0.0527623	0	-0.128164	0	0	0	0	6.54463	0
1.33196	0	0	0	0	0	0	-62.3088	813.67	71.6256	0.0508863	0	-0.128451	0	0	0	0	6.47079	0
1.33363	0	0	0	0	0	0	-60.25	808.085	71.3743	0.0490228	0	-0.128727	0	0	0	0	6.39764	0
1.3353	0	0	0	0	0	0	-58.2189	802.446	71.1147	0.0471712	0	-0.128992	0	0	0	0	6.32529	0
1.33696	0	0	0	0	0	0	-56.2164	796.761	70.8471	0.0453312	0	-0.129246	0	0	0	0	6.25386	0
1.33863	0	0	0	0	0	0	-54.2437	791.037	70.5718	0.0435021	0	-0.129488	0	0	0	0	6.18343	0
1.3403	0	0	0	0	0	0	-52.3015	785.283	70.289	0.0416833	0	-0.129719	0	0	0	0	6.11412	0
1.34196	0	0	0	0	0	0	-50.3907	779.507	69.9991	0.0398743	0	-0.129937	0	0	0	0	6.04599	0
1.34363	0	0	0	0	0	0	-48.5118	773.716	69.7021	0.0380743	0	-0.130142	0	0	0	0	5.97913	0
1.3453	0	0	0	0	0	0	-46.6657	767.919	69.3983	0.0362828	0	-0.130335	0	0	0	0	5.91362	0
1.34696	0	0	0	0	0	0	-44.8527	762.123	69.0879	0.0344989	0	-0.130515	0	0	0	0	5.84951	0
1.34863	0	0	0	0	0	0	-43.0733	756.335	68.7708	0.0327219	0	-0.130681	0	0	0	0	5.78687	0
1.3503	0	0	0	0	0	0	-41.328	750.563	68.4472	0.0309511	0	-0.130835	0	0	0	0	5.72574	0
1.35196	0	0	0	0	0	0	-39.617	744.814	68.1173	0.0291856	0	-0.130975	0	0	0	0	5.66617	0
1.35363	0	0	0	0	0	0	-37.9406	739.096	67.7809	0.0274247	0	-0.131102	0	0	0	0	5.60819	0
1.3553	0	0	0	0	0	0	-36.2989	733.414	67.4381	0.0256675	0	-0.131216	0	0	0	0	5.55184	0
1.35696	0	0	0	0	0	0	-34.692	727.777	67.089	0.0239131	0	-0.131318	0	0	0	0	5.49712	0
1.35863	0	0	0	0	0	0	-33.1201	722.19	66.7334	0.0221606	0	-0.131407	0	0	0	0	5.44406	0
1.3603	0	0	0	0	0	0	-31.5829	716.659	66.3714	0.0204093	0	-0.131483	0	0	0	0	5.39267	0
1.36196	0	0	0	0	0	0	-30.0806	711.192	66.0029	0.0186581	0	-0.131547	0	0	0	0	5.34293	0
1.36363	0	0	0	0	0	0	-28.6129	705.793	65.6278	0.0169061	0	-0.1316	0	0	0	0	5.29484	0
1.3653	0	0	0	0	0	0	-27.1797	700.468	65.246	0.0151525	0	-0.131641	0	0	0	0	5.24838	0
1.36696	0	0	0	0	0	0	-25.7807	695.223	64.8574	0.0133962	0	-0.131671	0	0	0	0	5.20354	0
1.36863	0	0	0	0	0	0	-24.4157	690.063	64.462	0.0116364	0	-0.131691	0	0	0	0	5.16028	0
1.3703	0	0	0	0	0	0	-23.0845	684.993	64.0596	0.0098721	0	-0.1317	0	0	0	0	5.11857	0
1.37196	0	0	0	0	0	0	-21.7865	680.017	63.6502	0.00810242	0	-0.1317	0	0	0	0	5.07837	0
1.37363	0	0	0	0	0	0	-20.5215	675.14	63.2336	0.00632641	0	-0.131692	0	0	0	0	5.03963	0
1.3753	0	0	0	0	0	0	-19.2891	670.365	62.8096	0.00454319	0	-0.131674	0	0	0	0	5.00229	0
1.37696	0	0	0	0	0	0	-18.0887	665.698	62.3783	0.00275185	0	-0.131649	0	0	0	0	4.96631	0
1.37863	0	0	0	0	0	0	-16.92	661.141	61.9396	0.000951532	0	-0.131617	0	0	0	0	4.93162	0
1.3803	0	0	0	0	0	0	-15.7824	656.697	61.4932	-0.000858626	0	-0.131578	0	0	0	0	4.89815	0
1.38196	0	0	0	0	0	0	-14.6754	652.37	61.0393	-0.00267945	0	-0.131534	0	0	0	0	4.86582	0
1.38363	0	0	0	0	0	0	-13.5985	648.163	60.5776	-0.00451172	0	-0.131484	0	0	0	0	4.83457	0
1.3853	0	0	0	0	0	0	-12.5511	644.077	60.1083	-0.00635623	0	-0.131429	0	0	0	0	4.80432	0
1.38696	0	0	0	0	0	0	-11.5327	640.116	59.6311	-0.00821368	0	-0.131371	0	0	0	0	4.77498	0
1.38863	0	0	0	0	0	0	-10.5426	636.281	59.1463	-0.0100848	0	-0.131309	0	0	0	0	4.74646	0
1.3903	0	0	0	0	0	0	-9.58027	632.574	58.6536	-0.0119702	0	-0.131245	0	0	0	0	4.71869	0
1.39196	0	0	0	0	0	0	-8.64506	628.997	58.1533	-0.0138704	0	-0.131179	0	0	0	0	4.69156	0
1.39363	0	0	0	0	0	0	-7.73636	625.55	57.6453	-0.0157862	0	-0.131112	0	0	0	0	4.66499	0
1.3953	0	0	0	0	0	0	-6.85354	622.235	57.1298	-0.0177178	0	-0.131044	0	0	0	0	4.63889	0
1.39696	0	0	0	0	0	0	-5.99594	619.053	56.6069	-0.0196659	0	-0.130977	0	0	0	0	4.61316	0
1.39863	0	0	0	0	0	0	-5.16293	616.004	56.0766	-0.0216307	0	-0.13091	0	0	0	0	4.58771	0
1.4003	0	0	0	0	0	0	-4.35383	613.088	55.5393	-0.0236127	0	-0.130845	0	0	0	0	4.56244	0
1.40196	0	0	0	0	0	0	-3.56798	610.307	54.9952	-0.025612	0	-0.130781	0	0	0	0	4.53726	0
1.40363	0	0	0	0	0	0	-2.80471	607.659	54.4444	-0.0276289	0	-0.13072	0	0	0	0	4.51208	0
1.4053	0	0	0	0	0	0	-2.06335	605.145	53.8872	-0.0296634	0	-0.130663	0	0	0	0	4.4868	0
1.40696	0	0	0	0	0	0	-1.3432	602.764	53.3241	-0.0317158	0	-0.130609	0	0	0	0	4.46133	0
1.40863	0	0	0	0	0	0	-0.643581	600.516	52.7552	-0.0337859	0	-0.130559	0	0	0	0	4.43559	0
1.4103	0	0	0	0	0	0	0.036207	598.401	52.1812	-0.0358737	0	-0.130515	0	0	0	0	4.40948	0
1.41196	0	0	0	0	0	0	0.696868	596.417	51.6022	-0.0379791	0	-0.130475	0	0	0	0	4.38293	0
1.41363	0	0	0	0	0	0	1.33911	594.564	51.0189	-0.0401017	0	-0.130441	0	0	0	0	4.35585	0
1.4153	0	0	0	0	0	0	1.96366	592.841	50.4318	-0.0422414	0	-0.130413	0	0	0	0	4.32816	0
1.41696	0	0	0	0	0	0	2.57123	591.247	49.8413	-0.0443977	0	-0.130391	0	0	0	0	4.29979	0
1.41863	0	0	0	0	0	0	3.16257	589.78	49.2481	-0.0465703	0	-0.130377	0	0	0	0	4.27066	0
1.4203	0	0	0	0	0	0	3.73841	588.441	48.6528	-0.0487584	0	-0.130369	0	0	0	0	4.24071	0
1.42196	0	0	0	0	0	0	4.29952	587.227	48.056	-0.0509617	0	-0.130368	0	0	0	0	4.20987	0
1.42363	0	0	0	0	0	0	4.84667	586.137	47.4585	-0.0531794	0	-0.130375	0	0	0	0	4.17809	0
1.4253	0	0	0	0	0	0	5.38062	585.17	46.8609	-0.0554108	0	-0.13039	0	0	0	0	4.14531	0
1.42696	0	0	0	0	0	0	5.90219	584.325	46.264	-0.0576551	0	-0.130412	0	0	0	0	4.11148	0
1.42863	0	0	0	0	0	0	6.41217	583.601	45.6686	-0.0599114	0	-0.130443	0	0	0	0	4.07656	0
1.4303	0	0	0	0	0	0	6.91139	582.997	45.0755	-0.0621788	0	-0.130481	0	0	0	0	4.04051	0
1.43196	0	0	0	0	0	0	7.4007	582.51	44.4856	-0.0644563	0	-0.130527	0	0	0	0	4.00329	0
1.43363	0	0	0	0	0	0	7.88095	582.141	43.8998	-0.0667428	0	-0.130581	0	0	0	0	3.96488	0
1.4353	0	0	0	0	0	0	8.35302	581.888	43.3189	-0.0690372	0	-0.130643	0	0	0	0	3.92525	0
1.43696	0	0	0	0	0	0	8.81781	581.751	42.7439	-0.0713384	0	-0.130713	0	0	0	0	3.88439	0
1.43863	0	0	0	0	0	0	9.27625	581.727	42.1758	-0.0736452	0	-0.130791	0	0	0	0	3.84229	0
1.4403	0	0	0	0	0	0	9.72927	581.817	41.6154	-0.0759563	0	-0.130876	0	0	0	0	3.79893	0
1.44196	0	0	0	0	0	0	10.1778	582.02	41.0638	-0.0782704	0	-0.130969	0	0	0	0	3.75432	0
1.44363	0	0	0	0	0	0	10.6229	582.335	40.5221	-0.0805863	0	-0.131068	0	0	0	0	3.70847	0
1.4453	0	0	0	0	0	0	11.0656	582.761	39.9911	-0.0829025	0	-0.131174	0	0	0	0	3.66139	0
1.44696	0	0	0	0	0	0	11.5068	583.298	39.472	-0.0852176	0	-0.131287	0	0	0	0	3.61309	0
